<?xml version="1.0" standalone="no"?>
<!DOCTYPE svg PUBLIC "-//W3C//DTD SVG 20010904//EN"
 "http://www.w3.org/TR/2001/REC-SVG-20010904/DTD/svg10.dtd">
<svg version="1.0" xmlns="http://www.w3.org/2000/svg"
 width="2724.000000pt" height="2445.000000pt" viewBox="0 0 2724.000000 2445.000000"
 preserveAspectRatio="xMidYMid meet">

<g transform="translate(0.000000,2445.000000) scale(0.100000,-0.100000)"
fill="#000000" stroke="none">
<path d="M13290 22304 c-655 -36 -1059 -85 -1598 -195 -1910 -389 -3649 -1325
-5032 -2709 -1526 -1525 -2503 -3476 -2810 -5610 -72 -498 -95 -840 -95 -1415
0 -468 8 -637 46 -1015 273 -2704 1653 -5182 3815 -6853 1406 -1086 3067
-1771 4835 -1991 741 -93 1554 -100 2299 -21 1578 168 3106 720 4425 1598 709
472 1276 960 1884 1622 149 161 414 482 562 680 936 1245 1560 2669 1839 4190
112 614 155 1110 155 1790 0 574 -23 916 -95 1415 -341 2370 -1511 4514 -3325
6092 -957 833 -2091 1485 -3290 1894 -833 284 -1650 448 -2560 514 -146 11
-926 21 -1055 14z m785 -44 c949 -40 1854 -203 2729 -494 1912 -635 3593
-1849 4808 -3471 1733 -2315 2360 -5269 1722 -8110 -501 -2228 -1780 -4231
-3604 -5642 -871 -673 -1857 -1201 -2895 -1548 -1542 -517 -3193 -645 -4802
-375 -2695 454 -5086 2010 -6598 4295 -1303 1969 -1854 4309 -1569 6665 381
3157 2273 5943 5079 7481 1557 853 3353 1273 5130 1199z"/>
<path d="M14073 19503 l-33 -4 0 -1452 c0 -799 -3 -1982 -7 -2629 l-6 -1178
81 0 82 0 1 183 c0 100 2 209 4 242 7 157 17 4643 11 4738 l-8 107 -46 -2
c-26 0 -62 -3 -79 -5z"/>
<path d="M13943 19493 c9 -2 25 -2 35 0 9 3 1 5 -18 5 -19 0 -27 -2 -17 -5z"/>
<path d="M11016 17589 c-411 -43 -800 -231 -1065 -515 -399 -428 -575 -1214
-395 -1769 95 -291 377 -624 727 -858 107 -71 264 -150 273 -136 4 6 0 15 -8
20 -49 28 -147 110 -217 184 -440 466 -561 1277 -276 1860 201 413 597 715
1068 817 84 18 134 22 282 22 159 0 193 -3 292 -27 452 -105 810 -409 1064
-902 84 -165 95 -165 59 0 -49 222 -161 479 -287 655 -326 458 -920 712 -1517
649z"/>
<path d="M19950 13663 l0 -508 -2952 0 -2953 0 -29 -60 c-33 -68 -45 -163 -27
-218 17 -50 92 -117 132 -117 30 0 31 1 25 34 -8 43 10 128 41 189 l24 49
3010 -4 3009 -3 0 573 0 572 -140 0 -140 0 0 -507z"/>
<path d="M6930 13195 l0 -65 243 -1 c133 -1 251 -3 262 -4 11 -1 277 -5 590
-9 314 -3 647 -8 740 -11 94 -3 355 -7 580 -10 226 -3 694 -10 1040 -15 1541
-23 1915 -29 2288 -36 l317 -6 0 65 0 64 -422 7 c-233 3 -551 8 -708 11 -157
3 -589 10 -960 15 -371 5 -814 12 -985 15 -170 3 -618 10 -995 15 -377 6 -950
15 -1275 20 -324 6 -618 10 -652 10 l-63 0 0 -65z"/>
<path d="M20016 12593 c-61 -697 -245 -1470 -509 -2144 -276 -703 -633 -1311
-1093 -1864 -138 -166 -532 -560 -693 -695 -405 -336 -842 -613 -1301 -825
-898 -416 -1931 -639 -3057 -662 l-303 -6 0 -129 0 -128 108 -1 c467 -3 778
13 1197 62 2380 276 4143 1463 5142 3464 373 746 633 1594 752 2455 19 137 51
463 51 523 l0 27 -144 0 -144 0 -6 -77z"/>
<path d="M6940 11721 c0 -15 3 -49 6 -74 l7 -46 51 -5 c28 -3 310 -10 626 -16
316 -5 739 -13 940 -16 971 -17 1581 -21 2685 -18 707 2 1245 7 1310 13 229
21 302 24 335 13 32 -12 32 -11 25 16 -9 40 -56 94 -106 122 -53 30 -131 33
-339 11 -106 -11 -405 -14 -1400 -16 -1339 -3 -2128 5 -3565 35 -242 6 -470
10 -507 10 l-68 0 0 -29z"/>
<path d="M15730 11635 c-442 -61 -859 -306 -1104 -649 -294 -412 -421 -1058
-301 -1532 65 -256 182 -441 431 -684 170 -166 328 -282 501 -369 92 -46 93
-46 92 -28 0 6 -32 35 -70 62 -92 65 -216 197 -291 310 -377 564 -393 1333
-37 1865 296 443 868 716 1382 661 524 -57 959 -391 1232 -949 27 -56 53 -102
57 -102 24 0 -29 238 -87 390 -215 563 -690 939 -1298 1025 -124 18 -377 18
-507 0z"/>
</g>
</svg>
